<svg width="42" height="42" viewBox="0 0 42 42" fill="none" xmlns="http://www.w3.org/2000/svg">
<g id="Confetti">
<path id="Vector" opacity="0.2" d="M16.8001 32.5501L9.45008 25.2001L6.21805 34.1087C6.12869 34.3424 6.10892 34.5971 6.16113 34.8418C6.21333 35.0866 6.33527 35.311 6.51223 35.4879C6.68919 35.6649 6.91359 35.7868 7.15834 35.839C7.4031 35.8912 7.65773 35.8715 7.89149 35.7821L16.8001 32.5501Z" fill="#F8D57E"/>
<path id="Vector_2" opacity="0.2" d="M32.6124 24.8422L32.6127 24.8425C32.7609 24.9894 32.8695 25.1714 32.9286 25.3716C32.9876 25.5718 32.9951 25.7837 32.9503 25.9875C32.9055 26.1914 32.8099 26.3806 32.6724 26.5376C32.5349 26.6946 32.36 26.8143 32.1638 26.8856L25.4816 29.314L12.686 16.5184L15.1144 9.83621C15.1857 9.64005 15.3054 9.46509 15.4624 9.32759C15.6194 9.19009 15.8086 9.0945 16.0125 9.04972C16.2163 9.00493 16.4282 9.0124 16.6284 9.07142C16.8286 9.13045 17.0106 9.23912 17.1575 9.38733L17.1578 9.38756L32.6124 24.8422Z" fill="#F8D57E" stroke="#F8D57E" stroke-width="0.148438"/>
<path id="Vector_3" d="M6.21805 34.1085L15.0446 9.81086C15.1202 9.60294 15.2471 9.4175 15.4135 9.27175C15.5799 9.12601 15.7805 9.0247 15.9965 8.97723C16.2126 8.92976 16.4372 8.93767 16.6494 9.00024C16.8615 9.0628 17.0545 9.17798 17.2102 9.33508L32.6649 24.7898C32.822 24.9455 32.9372 25.1384 32.9998 25.3506C33.0623 25.5628 33.0702 25.7874 33.0228 26.0035C32.9753 26.2195 32.874 26.4201 32.7282 26.5865C32.5825 26.7529 32.3971 26.8798 32.1891 26.9554L7.89149 35.7819C7.65773 35.8713 7.4031 35.8911 7.15834 35.8389C6.91359 35.7867 6.68919 35.6647 6.51223 35.4878C6.33527 35.3108 6.21333 35.0864 6.16113 34.8417C6.10892 34.5969 6.12869 34.3423 6.21805 34.1085V34.1085Z" stroke="#F8D57E" stroke-width="2.375" stroke-linecap="round" stroke-linejoin="round"/>
<path id="Vector_4" d="M27.5624 11.8125C27.5624 11.8125 27.5624 7.875 31.4999 7.875C35.4374 7.875 35.4374 3.9375 35.4374 3.9375" stroke="#F8D57E" stroke-width="2.375" stroke-linecap="round" stroke-linejoin="round"/>
<path id="Vector_5" d="M16.8001 32.5501L9.45013 25.2001" stroke="#F8D57E" stroke-width="2.375" stroke-linecap="round" stroke-linejoin="round"/>
<path id="Vector_6" d="M23.625 2.625V6.5625" stroke="#F8D57E" stroke-width="2.375" stroke-linecap="round" stroke-linejoin="round"/>
<path id="Vector_7" d="M35.4374 18.375L38.0624 21" stroke="#F8D57E" stroke-width="2.375" stroke-linecap="round" stroke-linejoin="round"/>
<path id="Vector_8" d="M35.4374 13.125L39.3749 11.8125" stroke="#F8D57E" stroke-width="2.375" stroke-linecap="round" stroke-linejoin="round"/>
<path id="Vector_9" d="M12.6001 16.5375L25.4626 29.4" stroke="#F8D57E" stroke-width="2.375" stroke-linecap="round" stroke-linejoin="round"/>
</g>
</svg>
