<svg width="42" height="42" viewBox="0 0 42 42" fill="none" xmlns="http://www.w3.org/2000/svg">
<g id="FlyingSaucer">
<path id="Vector" opacity="0.2" d="M29.039 11.2875C29.79 12.6551 30.1849 14.1897 30.1874 15.75V16.3898C30.19 16.9824 29.9896 17.5579 29.6194 18.0207C29.2492 18.4834 28.7317 18.8053 28.153 18.9328C25.8054 19.4575 23.4053 19.7107 20.9999 19.6875C18.5945 19.7107 16.1944 19.4575 13.8468 18.9328C13.2681 18.8053 12.7506 18.4834 12.3804 18.0207C12.0102 17.5579 11.8098 16.9824 11.8124 16.3898V15.8812C11.8134 14.2708 12.2316 12.6881 13.0265 11.2875C6.87413 12.5508 2.62491 15.2578 2.62491 18.375C2.62491 22.7226 10.8444 26.25 20.9999 26.25C31.1554 26.25 39.3749 22.7226 39.3749 18.375C39.3749 15.2578 35.1585 12.5672 29.039 11.2875Z" fill="#009379"/>
<path id="Vector_2" d="M27.6937 30.9586L28.3336 34.8305" stroke="#009379" stroke-width="2.375" stroke-linecap="round" stroke-linejoin="round"/>
<path id="Vector_3" d="M21.0001 31.5V36.75" stroke="#009379" stroke-width="2.375" stroke-linecap="round" stroke-linejoin="round"/>
<path id="Vector_4" d="M14.3062 30.9586L13.6664 34.8305" stroke="#009379" stroke-width="2.375" stroke-linecap="round" stroke-linejoin="round"/>
<path id="Vector_5" d="M29.039 11.2875C35.1585 12.5672 39.3749 15.2578 39.3749 18.375C39.3749 22.7226 31.1554 26.25 20.9999 26.25C10.8444 26.25 2.62491 22.7226 2.62491 18.375C2.62491 15.2578 6.87413 12.5508 13.0265 11.2875" stroke="#009379" stroke-width="2.375" stroke-linecap="round" stroke-linejoin="round"/>
<path id="Vector_6" d="M11.8124 16.39C11.8098 16.9825 12.0102 17.5581 12.3804 18.0208C12.7506 18.4835 13.2681 18.8054 13.8468 18.9329C16.1944 19.4576 18.5945 19.7109 20.9999 19.6876C23.4053 19.7109 25.8054 19.4576 28.153 18.9329C28.7317 18.8054 29.2492 18.4835 29.6194 18.0208C29.9896 17.5581 30.19 16.9825 30.1874 16.39V15.7501C30.1875 14.5339 29.9461 13.3297 29.4772 12.2075C29.0083 11.0852 28.3213 10.0673 27.456 9.21262C26.5906 8.35796 25.5642 7.68363 24.4362 7.22872C23.3083 6.77382 22.1012 6.5474 20.8851 6.56261C15.8319 6.62823 11.8124 10.8446 11.8124 15.8814V16.39Z" stroke="#009379" stroke-width="2.375" stroke-linecap="round" stroke-linejoin="round"/>
</g>
</svg>
