<svg width="42" height="42" viewBox="0 0 42 42" fill="none" xmlns="http://www.w3.org/2000/svg">
<g id="MagicWand">
<path id="Vector" opacity="0.2" d="M11.4353 35.8148C11.3131 35.9389 11.1676 36.0373 11.007 36.1046C10.8465 36.1718 10.6742 36.2064 10.5001 36.2064C10.326 36.2064 10.1537 36.1718 9.99319 36.1046C9.83264 36.0373 9.68707 35.9389 9.56494 35.8148L6.18526 32.4352C6.06125 32.313 5.96276 32.1675 5.89554 32.0069C5.82832 31.8464 5.7937 31.6741 5.7937 31.5C5.7937 31.3259 5.82832 31.1536 5.89554 30.9931C5.96276 30.8325 6.06125 30.687 6.18526 30.5648L23.6251 13.125L28.8751 18.375L11.4353 35.8148Z" fill="#FF6250"/>
<path id="Vector_2" d="M35.4374 21V28.875" stroke="#FF6250" stroke-width="2.375" stroke-linecap="round" stroke-linejoin="round"/>
<path id="Vector_3" d="M31.5001 24.9375H39.3751" stroke="#FF6250" stroke-width="2.375" stroke-linecap="round" stroke-linejoin="round"/>
<path id="Vector_4" d="M13.7812 6.5625V13.125" stroke="#FF6250" stroke-width="2.375" stroke-linecap="round" stroke-linejoin="round"/>
<path id="Vector_5" d="M10.4999 9.84375H17.0624" stroke="#FF6250" stroke-width="2.375" stroke-linecap="round" stroke-linejoin="round"/>
<path id="Vector_6" d="M27.5624 30.1874V35.4374" stroke="#FF6250" stroke-width="2.375" stroke-linecap="round" stroke-linejoin="round"/>
<path id="Vector_7" d="M24.9375 32.8125H30.1875" stroke="#FF6250" stroke-width="2.375" stroke-linecap="round" stroke-linejoin="round"/>
<path id="Vector_8" d="M30.5855 6.17398L6.18862 30.5708C5.67606 31.0834 5.67606 31.9144 6.18862 32.427L9.5819 35.8203C10.0945 36.3328 10.9255 36.3328 11.4381 35.8203L35.8349 11.4234C36.3475 10.9109 36.3475 10.0798 35.8349 9.56727L32.4416 6.17398C31.9291 5.66142 31.098 5.66142 30.5855 6.17398Z" stroke="#FF6250" stroke-width="2.375" stroke-linecap="round" stroke-linejoin="round"/>
<path id="Vector_9" d="M23.625 13.125L28.875 18.375" stroke="#FF6250" stroke-width="2.375" stroke-linecap="round" stroke-linejoin="round"/>
</g>
</svg>
