<svg width="22" height="22" viewBox="0 0 22 22" fill="none" xmlns="http://www.w3.org/2000/svg">
<g id="PencilSimple">
<path id="Vector" d="M19.5345 6.3054L15.6948 2.46485C15.5671 2.33714 15.4155 2.23583 15.2487 2.16671C15.0818 2.09759 14.903 2.06201 14.7224 2.06201C14.5418 2.06201 14.363 2.09759 14.1961 2.16671C14.0293 2.23583 13.8777 2.33714 13.75 2.46485L3.15305 13.0627C3.02482 13.1899 2.92315 13.3413 2.85396 13.5082C2.78476 13.675 2.74943 13.854 2.75001 14.0346V17.8752C2.75001 18.2398 2.89487 18.5896 3.15274 18.8474C3.4106 19.1053 3.76033 19.2502 4.12501 19.2502H7.96555C8.14619 19.2507 8.32513 19.2154 8.49199 19.1462C8.65885 19.077 8.81029 18.9754 8.93751 18.8471L19.5345 8.25016C19.6622 8.12248 19.7635 7.97089 19.8326 7.80404C19.9017 7.6372 19.9373 7.45837 19.9373 7.27778C19.9373 7.09719 19.9017 6.91836 19.8326 6.75152C19.7635 6.58467 19.6622 6.43308 19.5345 6.3054ZM16.5 9.33985L12.6595 5.50016L14.722 3.43766L18.5625 7.27735L16.5 9.33985Z" fill="#0EA5E9"/>
</g>
</svg>
